<?xml version="1.0" encoding="UTF-8"?>
<svg version="1.1" xmlns="http://www.w3.org/2000/svg" width="626" height="417">
<path d="M0 0 C206.58 0 413.16 0 626 0 C626 137.61 626 275.22 626 417 C419.42 417 212.84 417 0 417 C0 279.39 0 141.78 0 0 Z " fill="#F6F6F6" transform="translate(0,0)"/>
<path d="M0 0 C3.02373778 2.6434446 4.72440477 5.76545824 6.6875 9.2421875 C7.20316528 10.15026657 7.20316528 10.15026657 7.72924805 11.07669067 C8.82410773 13.00689349 9.91222254 14.94079872 11 16.875 C12.08924578 18.80119946 13.17985288 20.72662248 14.27075195 22.65188599 C15.26214254 24.40322845 16.2502991 26.15640045 17.23828125 27.90966797 C18.35913535 29.87582251 19.51999553 31.8200888 20.73193359 33.73144531 C22 36 22 36 21.9765625 38.8046875 C20.69443763 42.99980008 18.67238463 46.40890169 16.375 50.125 C15.46206272 51.63791412 14.54930317 53.15093551 13.63671875 54.6640625 C13.18731934 55.40172852 12.73791992 56.13939453 12.27490234 56.89941406 C10.54616258 59.74776277 8.86405887 62.62061192 7.1875 65.5 C6.68605469 66.3559375 6.18460937 67.211875 5.66796875 68.09375 C4.32610777 70.43179349 3.01318506 72.78054768 1.7109375 75.140625 C-1.29288709 80.56180514 -4.4275295 85.90393092 -7.5625 91.25 C-15.36700852 104.59561688 -23.09128847 117.98612571 -30.62573242 131.48632812 C-34.25869673 137.99331827 -38.04645879 144.36435527 -41.98828125 150.69140625 C-44.13999156 154.23023855 -46.174607 157.81873446 -48.1875 161.4375 C-52.03540505 168.33184275 -55.9593627 175.17994418 -59.9375 182 C-60.50557373 182.98669678 -61.07364746 183.97339355 -61.65893555 184.98999023 C-62.46004761 186.35619507 -62.46004761 186.35619507 -63.27734375 187.75 C-63.75421631 188.56984375 -64.23108887 189.3896875 -64.72241211 190.234375 C-65.14401611 190.81703125 -65.56562012 191.3996875 -66 192 C-66.66 192 -67.32 192 -68 192 C-68.33209473 191.41621582 -68.66418945 190.83243164 -69.00634766 190.23095703 C-70.54470632 187.52829085 -72.08484507 184.82664293 -73.625 182.125 C-74.14707031 181.2071875 -74.66914063 180.289375 -75.20703125 179.34375 C-79.23823798 172.27669622 -83.30679477 165.22524935 -87.68066406 158.36328125 C-89 156 -89 156 -88.8984375 153.5703125 C-87.79625175 150.41710284 -86.324542 147.75381604 -84.625 144.875 C-84.27195801 144.27155762 -83.91891602 143.66811523 -83.55517578 143.04638672 C-82.78226196 141.72534013 -82.00658957 140.40590459 -81.22851562 139.08789062 C-79.54054387 136.21914371 -77.87990973 133.33490351 -76.21728516 130.45141602 C-71.00153662 121.4116074 -65.73454742 112.40165747 -60.46972656 103.39038086 C-56.15939365 96.00581781 -51.88731434 88.59985589 -47.625 81.1875 C-42.02749823 71.45599621 -36.33324904 61.78629946 -30.59204102 52.13931274 C-26.3354221 44.98384667 -22.1437473 37.80300881 -18.09716797 30.52685547 C-15.37924744 25.64614738 -12.58155582 20.81563526 -9.75 16 C-9.3492627 15.31728027 -8.94852539 14.63456055 -8.53564453 13.93115234 C-5.7669802 9.23855938 -2.90743749 4.60778291 0 0 Z " fill="#010101" transform="translate(313,112)"/>
<path d="M0 0 C0.66 0 1.32 0 2 0 C2.5576001 1.00244751 2.5576001 1.00244751 3.12646484 2.02514648 C12.41308195 18.71605938 12.41308195 18.71605938 22.01342773 35.22729492 C26.96564379 43.58095179 31.75057854 52.0314503 36.55615234 60.4699707 C36.89331772 61.06165543 37.23048309 61.65334015 37.5778656 62.26295471 C38.5023031 63.88557099 39.42586268 65.50868735 40.34936523 67.13183594 C41.94504901 69.99738833 41.94504901 69.99738833 43.77758789 72.56347656 C45 75 45 75 44.84008789 77.53710938 C43.97714213 80.06701255 42.95413515 82.12826721 41.55859375 84.40625 C41.06085449 85.22706055 40.56311523 86.04787109 40.05029297 86.89355469 C39.51807129 87.75368164 38.98584961 88.61380859 38.4375 89.5 C37.89754395 90.38333008 37.35758789 91.26666016 36.80126953 92.17675781 C35.71428628 93.95357602 34.62447721 95.72866884 33.53173828 97.50195312 C32.16831977 99.72549443 30.82632142 101.95963119 29.49609375 104.203125 C28.78911386 105.38544738 28.08208673 106.56774151 27.375 107.75 C26.76398438 108.77609375 26.15296875 109.8021875 25.5234375 110.859375 C24.76933594 111.91898438 24.76933594 111.91898438 24 113 C23.34 113 22.68 113 22 113 C21.39414062 111.89785156 20.78828125 110.79570312 20.1640625 109.66015625 C15.30889016 100.85869045 10.36922911 92.12088886 5.22509766 83.48461914 C4.83112793 82.82196045 4.4371582 82.15930176 4.03125 81.4765625 C3.68642578 80.89986816 3.34160156 80.32317383 2.98632812 79.72900391 C1.91923832 77.85842718 0.96309272 75.92618544 0 74 C-23.1 73.67 -46.2 73.34 -70 73 C-67.69 68.38 -65.38 63.76 -63 59 C-62.11183594 56.81632812 -61.22367187 54.63265625 -60.30859375 52.3828125 C-54.66232761 39.49646333 -54.66232761 39.49646333 -49 35 C-39.32313836 32.09099668 -28.83726866 33.52014088 -19 35 C-18.70125977 34.06373779 -18.40251953 33.12747559 -18.09472656 32.1628418 C-16.98845623 28.96664819 -15.63003664 26.61138337 -13.75 23.8125 C-10.70639282 19.16166574 -7.97712297 14.42625258 -5.35546875 9.52734375 C-3.6321776 6.31417552 -1.82396065 3.15685496 0 0 Z " fill="#010101" transform="translate(357,190)"/>
<path d="M0 0 C0.66 0.99 1.32 1.98 2 3 C1.36191406 4.04800781 0.72382813 5.09601563 0.06640625 6.17578125 C-0.76838473 7.55459332 -1.60301161 8.93350477 -2.4375 10.3125 C-2.85837891 11.00279297 -3.27925781 11.69308594 -3.71289062 12.40429688 C-4.11572266 13.07138672 -4.51855469 13.73847656 -4.93359375 14.42578125 C-5.30540771 15.03848877 -5.67722168 15.65119629 -6.06030273 16.2824707 C-7.14978651 18.15281357 -7.14978651 18.15281357 -8 21 C-8.66 21 -9.32 21 -10 21 C-10.10828125 21.56332031 -10.2165625 22.12664062 -10.328125 22.70703125 C-11.10693335 25.36494114 -12.28299517 27.33953608 -13.75 29.6875 C-14.28367188 30.56019531 -14.81734375 31.43289062 -15.3671875 32.33203125 C-15.90601563 33.21246094 -16.44484375 34.09289062 -17 35 C-17.97098599 36.61747148 -18.93030778 38.24203203 -19.875 39.875 C-20.28492188 40.57367188 -20.69484375 41.27234375 -21.1171875 41.9921875 C-22.26833324 44.24472608 -22.26833324 44.24472608 -22 48 C-21.04937699 50.08892266 -19.92838953 52.01570559 -18.77734375 54 C-17.83603498 56.42185974 -18.14546367 57.59224985 -19 60 C-20.20528665 58.11542462 -21.38866449 56.21682415 -22.5625 54.3125 C-23.55443359 52.72888672 -23.55443359 52.72888672 -24.56640625 51.11328125 C-26 48 -26 48 -25.92578125 45.48828125 C-24.7757954 42.39739101 -23.30294229 39.71722878 -21.625 36.875 C-20.90102639 35.63802977 -20.17706898 34.40105007 -19.453125 33.1640625 C-19.06060547 32.49922852 -18.66808594 31.83439453 -18.26367188 31.14941406 C-16.90807756 28.84364661 -15.56958169 26.52856742 -14.234375 24.2109375 C-9.56019599 16.09809813 -4.87183233 7.99638302 0 0 Z " fill="#191919" transform="translate(250,220)"/>
<path d="M0 0 C1.02323436 1.31558703 2.01755155 2.65368175 3 4 C3.86625 5.175625 3.86625 5.175625 4.75 6.375 C6.4076265 9.85601566 5.9673044 11.27021368 5 15 C3.63564384 17.82001025 2.02145405 20.4620788 0.375 23.125 C-0.53147986 24.62616331 -1.43772828 26.12746639 -2.34375 27.62890625 C-2.79234375 28.36512207 -3.2409375 29.10133789 -3.703125 29.85986328 C-5.54882931 32.90569235 -7.33756909 35.98211189 -9.125 39.0625 C-9.68445313 40.02285156 -10.24390625 40.98320312 -10.8203125 41.97265625 C-11.20960938 42.64167969 -11.59890625 43.31070313 -12 44 C-12.66 43.67 -13.32 43.34 -14 43 C-13.690625 42.236875 -13.38125 41.47375 -13.0625 40.6875 C-12.32106407 38.81210323 -11.63771783 36.91315348 -11 35 C-10.34 35 -9.68 35 -9 35 C-8.34 32.69 -7.68 30.38 -7 28 C-6.34 28 -5.68 28 -5 28 C-4.690625 26.824375 -4.690625 26.824375 -4.375 25.625 C-3.1158056 22.30530568 -1.69292664 19.93656949 0.25 17 C2.72601108 13.16242145 2.72601108 13.16242145 2.5 8.6875 C2.005 7.800625 1.51 6.91375 1 6 C0.62875 5.05125 0.2575 4.1025 -0.125 3.125 C-0.41375 2.42375 -0.7025 1.7225 -1 1 C-0.67 0.67 -0.34 0.34 0 0 Z " fill="#161616" transform="translate(329,139)"/>
<path d="M0 0 C0.66 0 1.32 0 2 0 C3.32 2.64 4.64 5.28 6 8 C5.01 8 4.02 8 3 8 C2.67 7.34 2.34 6.68 2 6 C1.34 6 0.68 6 0 6 C-0.66 7.65 -1.32 9.3 -2 11 C-2.66 11 -3.32 11 -4 11 C-4.2475 11.9075 -4.495 12.815 -4.75 13.75 C-6.03981342 17.10351489 -7.31971042 18.67708236 -10 21 C-10 17.39589814 -9.01049739 15.87008943 -7.25 12.75 C-6.70601563 11.77933594 -6.16203125 10.80867187 -5.6015625 9.80859375 C-5.07304687 8.88175781 -4.54453125 7.95492187 -4 7 C-3.57460938 6.24847656 -3.14921875 5.49695313 -2.7109375 4.72265625 C-1.81385222 3.14468969 -0.90807488 1.57166806 0 0 Z " fill="#161616" transform="translate(357,190)"/>
<path d="M0 0 C0.66 0.66 1.32 1.32 2 2 C0.07686868 5.32104332 -1.86584146 8.63020124 -3.8125 11.9375 C-4.35970703 12.88302734 -4.90691406 13.82855469 -5.47070312 14.80273438 C-6.00244141 15.70185547 -6.53417969 16.60097656 -7.08203125 17.52734375 C-7.56905518 18.35999756 -8.0560791 19.19265137 -8.55786133 20.05053711 C-10 22 -10 22 -13 23 C-11.73485765 18.06594485 -9.45153461 14.45427859 -6.59765625 10.32421875 C-4.28171706 6.95506516 -2.14332259 3.48052828 0 0 Z " fill="#181818" transform="translate(396,273)"/>
<path d="M0 0 C3.35465216 3.01411512 5.15484541 5.93033688 7.0625 10 C9.07855402 14.29493018 9.07855402 14.29493018 11.74609375 18.1875 C12.15988281 18.785625 12.57367188 19.38375 13 20 C12.67 20.99 12.34 21.98 12 23 C8.48120711 18.88260786 5.82884833 14.51248374 3.1875 9.8125 C2.55811523 8.72678711 2.55811523 8.72678711 1.91601562 7.61914062 C0.87844701 5.78160148 -0.06890531 3.89371629 -1 2 C-0.67 1.34 -0.34 0.68 0 0 Z " fill="#131313" transform="translate(359,264)"/>
<path d="M0 0 C2.55234718 2.45225513 4.31418658 4.86920364 6 8 C6 8.66 6 9.32 6 10 C5.01 10 4.02 10 3 10 C2.34 8.68 1.68 7.36 1 6 C-1.61527381 8.36620011 -3.26440562 10.942048 -5 14 C-5.66 13.67 -6.32 13.34 -7 13 C-5.35821735 8.22390502 -2.73453298 4.20617096 0 0 Z " fill="#1B1B1B" transform="translate(313,112)"/>
<path d="M0 0 C2.24830883 2.08993739 3.78046574 4.10953938 5.26171875 6.79296875 C5.65810547 7.50517578 6.05449219 8.21738281 6.46289062 8.95117188 C6.86701172 9.68916016 7.27113281 10.42714844 7.6875 11.1875 C8.10322266 11.93708984 8.51894531 12.68667969 8.94726562 13.45898438 C9.96937725 15.30348466 10.9852981 17.1514131 12 19 C11.34 19.66 10.68 20.32 10 21 C9.59265625 20.31164062 9.1853125 19.62328125 8.765625 18.9140625 C7.51427118 16.848775 6.22943952 14.80360347 4.921875 12.7734375 C4.56609375 12.2165625 4.2103125 11.6596875 3.84375 11.0859375 C3.1064892 9.93265096 2.36150281 8.78427139 1.609375 7.640625 C0.66067819 6.14084696 -0.17825932 4.57292786 -1 3 C-0.67 2.01 -0.34 1.02 0 0 Z " fill="#151515" transform="translate(363,199)"/>
<path d="M0 0 C2.82152715 3.52468376 4.98269186 7.32679708 7.1875 11.25 C7.55552734 11.8996875 7.92355469 12.549375 8.30273438 13.21875 C9.20428903 14.81110627 10.10248417 16.4053638 11 18 C10.34 18.66 9.68 19.32 9 20 C7.70043409 17.963006 6.4103739 15.92092385 5.125 13.875 C4.57779297 13.02035156 4.57779297 13.02035156 4.01953125 12.1484375 C1.7613034 8.53527295 0.1813321 5.09113959 -1 1 C-0.67 0.67 -0.34 0.34 0 0 Z " fill="#212121" transform="translate(384,235)"/>
<path d="M0 0 C13.86 0.495 13.86 0.495 28 1 C28 1.33 28 1.66 28 2 C27.25838623 2.01458252 26.51677246 2.02916504 25.75268555 2.04418945 C22.39709369 2.11859457 19.04250506 2.21528006 15.6875 2.3125 C14.52025391 2.33505859 13.35300781 2.35761719 12.15039062 2.38085938 C11.03212891 2.41630859 9.91386719 2.45175781 8.76171875 2.48828125 C7.2142395 2.52755737 7.2142395 2.52755737 5.63549805 2.56762695 C1.16635986 3.3008223 -0.45799554 6.4896129 -3 10 C-3.33 9.01 -3.66 8.02 -4 7 C-2.68 4.69 -1.36 2.38 0 0 Z " fill="#1F1F1F" transform="translate(308,225)"/>
<path d="M0 0 C1.32 0 2.64 0 4 0 C2.45614871 4.14032846 0.48971062 7.93553053 -1.625 11.8125 C-1.94984375 12.40998047 -2.2746875 13.00746094 -2.609375 13.62304688 C-3.40379151 15.08337135 -4.20155376 16.54187491 -5 18 C-5.66 18 -6.32 18 -7 18 C-6.40662464 13.87641678 -5.01236819 10.90795717 -2.9375 7.3125 C-0.73662039 3.8612311 -0.73662039 3.8612311 0 0 Z " fill="#1D1D1D" transform="translate(267,261)"/>
<path d="M0 0 C4.94680851 5.93617021 4.94680851 5.93617021 6 9 C5.68097423 12.34977063 5.40820361 13.59179639 3 16 C3 14.68 3 13.36 3 12 C2.05763583 9.37484266 0.93962019 6.86335096 -0.1875 4.3125 C-0.455625 3.549375 -0.72375 2.78625 -1 2 C-0.67 1.34 -0.34 0.68 0 0 Z " fill="#1E1E1E" transform="translate(396,256)"/>
<path d="M0 0 C0.66 0 1.32 0 2 0 C0.66749209 3.5875213 -0.830717 6.8364623 -3 10 C-3.66 10 -4.32 10 -5 10 C-8 5.61538462 -8 5.61538462 -8 3 C-7.01 3 -6.02 3 -5 3 C-4.34 3.66 -3.68 4.32 -3 5 C-2.54625 4.175 -2.0925 3.35 -1.625 2.5 C-1.08875 1.675 -0.5525 0.85 0 0 Z " fill="#171717" transform="translate(250,294)"/>
<path d="M0 0 C1.02323436 1.31558703 2.01755155 2.65368175 3 4 C3.5775 4.78375 4.155 5.5675 4.75 6.375 C6.32232644 9.67688553 5.89049145 11.51898795 5 15 C4.67 15 4.34 15 4 15 C3.80664062 14.40832031 3.61328125 13.81664062 3.4140625 13.20703125 C2.05585281 9.0853355 0.67949415 5.0049476 -1 1 C-0.67 0.67 -0.34 0.34 0 0 Z " fill="#202020" transform="translate(329,139)"/>
<path d="M0 0 C0.75 1.5625 0.75 1.5625 1 4 C-0.02332869 6.54719859 -1.27272296 8.86333587 -3 11 C-3.99 11.33 -4.98 11.66 -6 12 C-4.68139111 7.38486888 -2.78644563 3.90102388 0 0 Z " fill="#202020" transform="translate(296,141)"/>
<path d="M0 0 C0.99 0 1.98 0 3 0 C3.33 1.65 3.66 3.3 4 5 C4.66 5 5.32 5 6 5 C6.33 4.34 6.66 3.68 7 3 C7 7 7 7 6 9 C5.34 9 4.68 9 4 9 C0 2.25 0 2.25 0 0 Z " fill="#171717" transform="translate(375,294)"/>
<path d="M0 0 C0.66 0 1.32 0 2 0 C0.43358249 4.30764815 -1.68336156 8.06171464 -4 12 C-4.66 11.67 -5.32 11.34 -6 11 C-4.54997977 6.89160936 -2.6020866 3.49655387 0 0 Z " fill="#151515" transform="translate(303,202)"/>
<path d="M0 0 C0.66 0 1.32 0 2 0 C1.46968862 4.5076467 -0.25221116 7.41954788 -3 11 C-3.66 11 -4.32 11 -5 11 C-3.55049545 7.2089881 -1.84827434 3.6125362 0 0 Z " fill="#1B1B1B" transform="translate(284,161)"/>
<path d="M0 0 C0.99 0 1.98 0 3 0 C4.421875 1.64453125 4.421875 1.64453125 5.75 3.8125 C6.19859375 4.52019531 6.6471875 5.22789062 7.109375 5.95703125 C8 8 8 8 7 11 C4.04250209 7.53258866 1.92151848 4.13126473 0 0 Z " fill="#191919" transform="translate(364,276)"/>
<path d="M0 0 C0.66 0.33 1.32 0.66 2 1 C0.55049545 4.7910119 -1.15172566 8.3874638 -3 12 C-3.66 11.67 -4.32 11.34 -5 11 C-4.32902328 6.80639551 -2.1441606 3.59665648 0 0 Z " fill="#1A1A1A" transform="translate(280,241)"/>
<path d="M0 0 C2.52349243 3.12432397 4.27256146 6.38060496 6 10 C5.01 10 4.02 10 3 10 C-0.22265625 4.82421875 -0.22265625 4.82421875 -1 3 C-0.67 2.01 -0.34 1.02 0 0 Z " fill="#212121" transform="translate(376,221)"/>
<path d="M0 0 C0.33 0 0.66 0 1 0 C1.39253254 4.44870215 0.15305957 7.14243493 -2 11 C-2.99 11 -3.98 11 -5 11 C-3.55049545 7.2089881 -1.84827434 3.6125362 0 0 Z " fill="#1A1A1A" transform="translate(294,249)"/>
<path d="M0 0 C0.66 0.33 1.32 0.66 2 1 C0.79157144 5.43090471 -0.51668565 7.98112756 -4 11 C-4 7.80389448 -3.45328458 6.58282374 -2 3.8125 C-1.62875 3.09707031 -1.2575 2.38164062 -0.875 1.64453125 C-0.441875 0.83048828 -0.441875 0.83048828 0 0 Z " fill="#222222" transform="translate(351,200)"/>
<path d="M0 0 C3.81300782 3.2870757 5.22972246 6.39727838 7 11 C6.01 11.495 6.01 11.495 5 12 C3.02 8.37 1.04 4.74 -1 1 C-0.67 0.67 -0.34 0.34 0 0 Z " fill="#191919" transform="translate(236,285)"/>
<path d="M0 0 C3.08089673 2.77280706 4.68775452 5.06326356 6 9 C5.01 9 4.02 9 3 9 C0.50022457 5.66696609 0 4.26696398 0 0 Z " fill="#1A1A1A" transform="translate(389,245)"/>
<path d="M0 0 C0.66 0.33 1.32 0.66 2 1 C1.67 2.98 1.34 4.96 1 7 C-0.32 7 -1.64 7 -3 7 C-1.125 2.25 -1.125 2.25 0 0 Z " fill="#E3E3E3" transform="translate(252,294)"/>
<path d="M0 0 C0.66 0 1.32 0 2 0 C0.52307692 6.64615385 0.52307692 6.64615385 -2.125 8.4375 C-2.74375 8.623125 -3.3625 8.80875 -4 9 C-2.80100302 5.9168649 -1.52299523 2.93720508 0 0 Z " fill="#1F1F1F" transform="translate(262,199)"/>
<path d="M0 0 C2.25245881 2.68841859 3.88213958 4.64641875 5 8 C2.525 7.01 2.525 7.01 0 6 C0 5.01 0 4.02 0 3 C-0.66 2.67 -1.32 2.34 -2 2 C-1.34 1.34 -0.68 0.68 0 0 Z " fill="#E8E8E8" transform="translate(364,277)"/>
<path d="M0 0 C0.75 1.6875 0.75 1.6875 1 4 C-0.9375 6.75 -0.9375 6.75 -3 9 C-3.33 8.01 -3.66 7.02 -4 6 C-2.0625 2.8125 -2.0625 2.8125 0 0 Z " fill="#181818" transform="translate(255,285)"/>
<path d="M0 0 C0.144375 0.598125 0.28875 1.19625 0.4375 1.8125 C0.8872439 3.56150404 1.42892341 5.28677023 2 7 C0.68 7.33 -0.64 7.66 -2 8 C-2.33 7.01 -2.66 6.02 -3 5 C-1.5625 2.3125 -1.5625 2.3125 0 0 Z " fill="#DDDDDD" transform="translate(301,209)"/>
<path d="M0 0 C1.32 0 2.64 0 4 0 C2.8141763 3.37503669 1.72426311 5.64722731 -1 8 C-0.67 5.36 -0.34 2.72 0 0 Z " fill="#131313" transform="translate(267,261)"/>
<path d="M0 0 C0.99 0.66 1.98 1.32 3 2 C2.3503125 2.61875 2.3503125 2.61875 1.6875 3.25 C-0.05838272 5.06054505 -1.52619271 6.96474232 -3 9 C-3.33 8.01 -3.66 7.02 -4 6 C-2.0625 2.8125 -2.0625 2.8125 0 0 Z " fill="#171717" transform="translate(308,226)"/>
<path d="M0 0 C0.99 0 1.98 0 3 0 C1.62845496 2.95409701 0.01136276 5.44008376 -2 8 C-3 5 -3 5 -1.75 2.3125 C-1.1725 1.549375 -0.595 0.78625 0 0 Z " fill="#272727" transform="translate(313,184)"/>
<path d="M0 0 C0.6875 1.75 0.6875 1.75 1 4 C-0.3125 6.25 -0.3125 6.25 -2 8 C-2.66 8 -3.32 8 -4 8 C-2.87548273 5.0280615 -1.77706209 2.66559313 0 0 Z " fill="#151515" transform="translate(234,248)"/>
<path d="M0 0 C0.66 0 1.32 0 2 0 C1.1875 2.9375 1.1875 2.9375 0 6 C-0.99 6.33 -1.98 6.66 -3 7 C-1.125 1.125 -1.125 1.125 0 0 Z " fill="#121212" transform="translate(386,289)"/>
<path d="M0 0 C0.66 0 1.32 0 2 0 C3.42944945 2.35438733 4.08661261 3.48032433 3.625 6.25 C3.41875 6.8275 3.2125 7.405 3 8 C0 3.375 0 3.375 0 0 Z " fill="#202020" transform="translate(228,272)"/>
<path d="M0 0 C-1.07401108 2.91517292 -1.77810176 4.77810176 -4 7 C-4.6875 5.1875 -4.6875 5.1875 -5 3 C-3.38441968 0.84589291 -2.74502455 0 0 0 Z " fill="#171717" transform="translate(290,228)"/>
<path d="M0 0 C2.50037734 2.17424117 3.43628586 3.73045798 4 7 C2.0625 6.25 2.0625 6.25 0 5 C-0.8125 2.9375 -0.8125 2.9375 -1 1 C-0.67 0.67 -0.34 0.34 0 0 Z " fill="#1C1C1C" transform="translate(363,199)"/>
<path d="M0 0 C0.66 0.33 1.32 0.66 2 1 C0.92598892 3.91517292 0.22189824 5.77810176 -2 8 C-2.33 7.01 -2.66 6.02 -3 5 C-1.5625 2.3125 -1.5625 2.3125 0 0 Z " fill="#1C1C1C" transform="translate(300,134)"/>
<path d="M0 0 C0.6875 1.6875 0.6875 1.6875 1 4 C-0.3125 6.75 -0.3125 6.75 -2 9 C-2.66 9 -3.32 9 -4 9 C-2.80100302 5.9168649 -1.52299523 2.93720508 0 0 Z " fill="#202020" transform="translate(305,125)"/>
</svg>
